<svg width="16" height="16" viewBox="0 0 30 30" fill="none" xmlns="http://www.w3.org/2000/svg">
    <path d="M30 11.9936C29.9993 11.198 29.683 10.4353 29.1206 9.87268C28.5582 9.31005 27.7955 8.99347 27 8.99238H25.0606L16.827 0.755857C16.3422 0.271675 15.6851 -0.000289917 15 -0.000289917C14.3149 -0.000289917 13.6578 0.271675 13.1731 0.755857L4.93946 8.99238H3C2.33344 8.99243 1.68586 9.21442 1.15945 9.62333C0.633044 10.0322 0.257782 10.6048 0.0928777 11.2506C-0.0720269 11.8965 -0.0171851 12.5789 0.24875 13.1901C0.514684 13.8013 0.976571 14.3066 1.56153 14.6262L3.91172 26.3807C4.11742 27.4001 4.66899 28.3172 5.47309 28.9767C6.27719 29.6362 7.28445 29.9977 8.32442 30H21.6756C22.7155 29.9978 23.7227 29.6363 24.5268 28.9769C25.3309 28.3175 25.8825 27.4006 26.0883 26.3813L28.4385 14.6262C28.9109 14.3676 29.3051 13.9869 29.5798 13.5237C29.8545 13.0606 29.9996 12.5321 30 11.9936V11.9936ZM14.2336 1.8164C14.437 1.61346 14.7127 1.49948 15 1.49948C15.2874 1.49948 15.563 1.61346 15.7664 1.8164L22.9395 8.99238H7.06055L14.2336 1.8164ZM3 10.493H27C27.398 10.493 27.7797 10.6511 28.0611 10.9325C28.3425 11.2139 28.5006 11.5956 28.5006 11.9936C28.5006 12.3915 28.3425 12.7732 28.0611 13.0546C27.7797 13.336 27.398 13.4941 27 13.4941H3C2.60202 13.4941 2.22034 13.336 1.93893 13.0546C1.65751 12.7732 1.49942 12.3915 1.49942 11.9936C1.49942 11.5956 1.65751 11.2139 1.93893 10.9325C2.22034 10.6511 2.60202 10.493 3 10.493V10.493ZM24.6176 26.0871C24.4803 26.7666 24.1125 27.3779 23.5764 27.8174C23.0403 28.257 22.3689 28.4979 21.6756 28.4994H8.32442C7.63109 28.4979 6.95958 28.2569 6.42348 27.8172C5.88739 27.3775 5.51964 26.7661 5.38243 26.0865L3.16407 14.9947H26.836L24.6176 26.0871ZM14.25 23.9977V19.4965C14.25 19.2976 14.329 19.1068 14.4697 18.9662C14.6103 18.8255 14.8011 18.7465 15 18.7465C15.1989 18.7465 15.3897 18.8255 15.5303 18.9662C15.671 19.1068 15.75 19.2976 15.75 19.4965V23.9982C15.75 24.1972 15.671 24.3879 15.5303 24.5286C15.3897 24.6692 15.1989 24.7482 15 24.7482C14.8011 24.7482 14.6103 24.6692 14.4697 24.5286C14.329 24.3879 14.25 24.1972 14.25 23.9982V23.9977ZM10.5 23.9977V19.4965C10.5 19.398 10.5194 19.3005 10.5571 19.2095C10.5948 19.1185 10.65 19.0358 10.7197 18.9662C10.7893 18.8965 10.872 18.8413 10.963 18.8036C11.054 18.7659 11.1515 18.7465 11.25 18.7465C11.3485 18.7465 11.446 18.7659 11.537 18.8036C11.628 18.8413 11.7107 18.8965 11.7803 18.9662C11.85 19.0358 11.9052 19.1185 11.9429 19.2095C11.9806 19.3005 12 19.398 12 19.4965V23.9982C12 24.0967 11.9806 24.1943 11.9429 24.2853C11.9052 24.3763 11.85 24.4589 11.7803 24.5286C11.7107 24.5982 11.628 24.6535 11.537 24.6912C11.446 24.7288 11.3485 24.7482 11.25 24.7482C11.1515 24.7482 11.054 24.7288 10.963 24.6912C10.872 24.6535 10.7893 24.5982 10.7197 24.5286C10.65 24.4589 10.5948 24.3763 10.5571 24.2853C10.5194 24.1943 10.5 24.0967 10.5 23.9982V23.9977ZM18 23.9977V19.4965C18 19.2976 18.079 19.1068 18.2197 18.9662C18.3603 18.8255 18.5511 18.7465 18.75 18.7465C18.9489 18.7465 19.1397 18.8255 19.2803 18.9662C19.421 19.1068 19.5 19.2976 19.5 19.4965V23.9982C19.5 24.1972 19.421 24.3879 19.2803 24.5286C19.1397 24.6692 18.9489 24.7482 18.75 24.7482C18.5511 24.7482 18.3603 24.6692 18.2197 24.5286C18.079 24.3879 18 24.1972 18 23.9982V23.9977Z" fill="white"/>
</svg>