<svg width="661" height="199" viewBox="0 0 661 199" fill="none" xmlns="http://www.w3.org/2000/svg">
<g clip-path="url(#clip0_42:2)">
<path fill-rule="evenodd" clip-rule="evenodd" d="M410.072 155.624C371.66 183.909 315.984 199 268.048 199C200.835 199 140.325 174.165 94.5478 132.858C90.9511 129.61 94.1737 125.183 98.4896 127.713C147.893 156.429 208.978 173.705 272.077 173.705C314.632 173.705 361.445 164.909 404.49 146.656C410.992 143.896 416.43 150.91 410.072 155.624" fill="#FF9900"/>
<path fill-rule="evenodd" clip-rule="evenodd" d="M426.04 137.371C421.149 131.105 393.585 134.411 381.212 135.877C377.443 136.336 376.868 133.06 380.263 130.702C402.216 115.267 438.24 119.722 442.441 124.896C446.642 130.099 441.348 166.174 420.717 183.392C417.552 186.036 414.531 184.628 415.941 181.121C420.574 169.565 430.961 143.666 426.04 137.371" fill="#FF9900"/>
<path fill-rule="evenodd" clip-rule="evenodd" d="M382.075 21.7312V6.72642C382.075 4.45558 383.802 2.93211 385.873 2.93211H453.116C455.274 2.93211 457 4.48433 457 6.72642V19.5753C456.971 21.7312 455.159 24.5482 451.936 29.0036L417.092 78.7032C430.04 78.3871 443.707 80.3129 455.446 86.9242C458.093 88.419 458.813 90.6036 459.014 92.7594V108.77C459.014 110.955 456.597 113.513 454.065 112.191C433.378 101.354 405.899 100.176 383.025 112.306C380.694 113.571 378.249 111.041 378.249 108.856V93.6505C378.249 91.2072 378.277 87.0392 380.723 83.3312L421.092 25.4967H385.96C383.802 25.4967 382.075 23.9733 382.075 21.7312" fill="white"/>
<path fill-rule="evenodd" clip-rule="evenodd" d="M136.786 115.353H116.329C114.372 115.209 112.819 113.743 112.675 111.875V6.98514C112.675 4.88677 114.43 3.21956 116.617 3.21956H135.693C137.678 3.30574 139.261 4.82926 139.405 6.72641V20.4377H139.779C144.756 7.18633 154.108 1.00621 166.71 1.00621C179.514 1.00621 187.513 7.18633 193.268 20.4377C198.217 7.18633 209.467 1.00621 221.523 1.00621C230.097 1.00621 239.477 4.54181 245.203 12.4754C251.677 21.3 250.353 34.1201 250.353 45.3594L250.324 111.558C250.324 113.657 248.569 115.353 246.382 115.353H225.954C223.911 115.209 222.271 113.571 222.271 111.558V55.9662C222.271 51.5395 222.674 40.5015 221.695 36.3048C220.17 29.2623 215.595 27.2789 209.668 27.2789C204.719 27.2789 199.54 30.5845 197.44 35.8736C195.339 41.1626 195.541 50.016 195.541 55.9662V111.558C195.541 113.657 193.786 115.353 191.599 115.353H171.17C169.098 115.209 167.487 113.571 167.487 111.558L167.458 55.9662C167.458 44.2671 169.386 27.0489 154.856 27.0489C140.153 27.0489 140.728 43.8359 140.728 55.9662V111.558C140.728 113.657 138.973 115.353 136.786 115.353" fill="white"/>
<path fill-rule="evenodd" clip-rule="evenodd" d="M514.891 1.00621C545.247 1.00621 561.676 27.0489 561.676 60.1629C561.676 92.1558 543.52 117.537 514.891 117.537C485.082 117.537 468.854 91.4947 468.854 59.0418C468.854 26.3878 485.284 1.00621 514.891 1.00621V1.00621ZM515.064 22.4211C499.987 22.4211 499.037 42.9448 499.037 55.7362C499.037 68.5564 498.836 95.9214 514.891 95.9214C530.745 95.9214 531.493 73.8454 531.493 60.3928C531.493 51.5395 531.119 40.9614 528.443 32.5679C526.141 25.2668 521.566 22.4211 515.064 22.4211" fill="black"/>
<path fill-rule="evenodd" clip-rule="evenodd" d="M514.891 1.00621C545.247 1.00621 561.676 27.0489 561.676 60.1629C561.676 92.1558 543.52 117.537 514.891 117.537C485.082 117.537 468.854 91.4947 468.854 59.0418C468.854 26.3878 485.284 1.00621 514.891 1.00621V1.00621ZM515.064 22.4211C499.987 22.4211 499.037 42.9448 499.037 55.7362C499.037 68.5564 498.836 95.9214 514.891 95.9214C530.745 95.9214 531.493 73.8454 531.493 60.3928C531.493 51.5395 531.119 40.9614 528.443 32.5679C526.141 25.2668 521.566 22.4211 515.064 22.4211" fill="white"/>
<path fill-rule="evenodd" clip-rule="evenodd" d="M601.037 115.353H580.666C578.623 115.209 576.983 113.571 576.983 111.559L576.954 6.64018C577.127 4.71428 578.825 3.21956 580.896 3.21956H599.858C601.641 3.30574 603.109 4.51308 603.512 6.15153V22.1911H603.886C609.612 7.84746 617.639 1.00621 631.767 1.00621C640.945 1.00621 649.894 4.31186 655.648 13.3664C661 21.7599 661 35.8736 661 46.0205V112.047C660.77 113.887 659.072 115.353 657.058 115.353H636.543C634.673 115.209 633.119 113.829 632.918 112.047V55.0751C632.918 43.6059 634.241 26.819 620.114 26.819C615.136 26.819 610.561 30.1534 608.288 35.2124C605.411 41.6225 605.037 48.0039 605.037 55.0751V111.559C605.008 113.657 603.224 115.353 601.037 115.353Z" fill="white"/>
<path fill-rule="evenodd" clip-rule="evenodd" d="M328.471 65.2507C328.471 73.213 328.673 79.853 324.645 86.9242C321.393 92.6732 316.214 96.2088 310.488 96.2088C302.633 96.2088 298.03 90.2299 298.03 81.4052C298.03 63.9859 313.653 60.824 328.471 60.824V65.2507V65.2507ZM349.102 115.065C347.749 116.273 345.793 116.359 344.268 115.554C337.477 109.92 336.24 107.304 332.528 101.929C321.307 113.369 313.337 116.79 298.807 116.79C281.572 116.79 268.192 106.183 268.192 84.9409C268.192 68.3551 277.169 57.0585 290.002 51.5395C301.108 46.6528 316.617 45.7905 328.471 44.4395V41.795C328.471 36.9371 328.846 31.1882 325.968 26.9915C323.494 23.2259 318.717 21.6737 314.488 21.6737C306.69 21.6737 299.756 25.6692 298.059 33.9477C297.713 35.7874 296.361 37.5983 294.491 37.6845L274.666 35.5574C272.997 35.1837 271.127 33.8327 271.616 31.2744C276.162 7.24383 297.915 0.000137329 317.365 0.000137329C327.321 0.000137329 340.326 2.64466 348.181 10.1758C358.136 19.4603 357.187 31.8493 357.187 45.3306V77.1798C357.187 86.7518 361.158 90.9485 364.898 96.1226C366.193 97.9622 366.481 100.176 364.812 101.555C360.64 105.033 353.216 111.501 349.13 115.123L349.102 115.065" fill="white"/>
<path fill-rule="evenodd" clip-rule="evenodd" d="M60.2792 65.2508C60.2792 73.2131 60.4806 79.8531 56.4524 86.9243C53.2011 92.6733 48.0507 96.2089 42.2962 96.2089C34.4412 96.2089 29.8663 90.2299 29.8663 81.4053C29.8663 63.986 45.49 60.8241 60.2792 60.8241V65.2508V65.2508ZM80.9094 115.065C79.5571 116.273 77.6005 116.359 76.0755 115.554C69.2852 109.92 68.0767 107.304 64.3362 101.929C53.1148 113.369 45.1735 116.79 30.6144 116.79C13.4082 116.79 0 106.183 0 84.9409C0 68.3552 9.00592 57.0585 21.8099 51.5395C32.9162 46.6529 48.4248 45.7906 60.2792 44.4396V41.7951C60.2792 36.9372 60.6533 31.1883 57.8048 26.9915C55.3015 23.226 50.5252 21.6737 46.3244 21.6737C38.5269 21.6737 31.5639 25.6693 29.8663 33.9478C29.521 35.7874 28.1687 37.5983 26.3272 37.6846L6.4739 35.5575C4.80507 35.1838 2.9636 33.8328 3.42397 31.2745C7.99887 7.24391 29.7224 0.000213623 49.1729 0.000213623C59.1283 0.000213623 72.1337 2.64473 79.9887 10.1759C89.9441 19.4604 88.9946 31.8494 88.9946 45.3307V77.1798C88.9946 86.7519 92.9653 90.9486 96.7057 96.1226C98.0293 97.9623 98.317 100.176 96.6482 101.555C92.4761 105.034 85.0527 111.501 80.9669 115.123L80.9094 115.065" fill="white"/>
</g>
<defs>
<clipPath id="clip0_42:2">
<rect width="661" height="199" fill="white"/>
</clipPath>
</defs>
</svg>
